<mxfile host="app.diagrams.net" modified="2022-11-20T06:34:59.373Z" agent="5.0 (Windows NT 10.0; Win64; x64) AppleWebKit/537.36 (KHTML, like Gecko) Chrome/107.0.0.0 Safari/537.36" etag="C3lp08-Bz7AVgZ642vo7" version="20.5.3" type="github">
  <diagram id="QJmEIsajdiGBneQIYKTa" name="페이지-1">
    <mxGraphModel dx="898" dy="481" grid="1" gridSize="10" guides="1" tooltips="1" connect="1" arrows="1" fold="1" page="1" pageScale="1" pageWidth="827" pageHeight="1169" math="0" shadow="0">
      <root>
        <mxCell id="0" />
        <mxCell id="1" parent="0" />
        <mxCell id="bR8xgodtiUnK5eINgVe9-14" style="edgeStyle=orthogonalEdgeStyle;rounded=0;orthogonalLoop=1;jettySize=auto;html=1;entryX=0;entryY=0.5;entryDx=0;entryDy=0;endArrow=none;endFill=0;" parent="1" source="3ayT5n4PbIL23pVHX4Ju-3" target="VUY6jiJl7TAsuizDtN5x-6" edge="1">
          <mxGeometry relative="1" as="geometry" />
        </mxCell>
        <mxCell id="bR8xgodtiUnK5eINgVe9-15" style="edgeStyle=orthogonalEdgeStyle;rounded=0;orthogonalLoop=1;jettySize=auto;html=1;exitX=1;exitY=0.5;exitDx=0;exitDy=0;entryX=0;entryY=0.5;entryDx=0;entryDy=0;endArrow=none;endFill=0;" parent="1" source="3ayT5n4PbIL23pVHX4Ju-3" target="bR8xgodtiUnK5eINgVe9-5" edge="1">
          <mxGeometry relative="1" as="geometry" />
        </mxCell>
        <mxCell id="bR8xgodtiUnK5eINgVe9-16" style="edgeStyle=orthogonalEdgeStyle;rounded=0;orthogonalLoop=1;jettySize=auto;html=1;entryX=0;entryY=0.5;entryDx=0;entryDy=0;endArrow=none;endFill=0;" parent="1" source="3ayT5n4PbIL23pVHX4Ju-3" target="3ayT5n4PbIL23pVHX4Ju-26" edge="1">
          <mxGeometry relative="1" as="geometry" />
        </mxCell>
        <mxCell id="3ayT5n4PbIL23pVHX4Ju-3" value="user" style="rounded=0;whiteSpace=wrap;html=1;" parent="1" vertex="1">
          <mxGeometry x="60" y="90" width="60" height="30" as="geometry" />
        </mxCell>
        <mxCell id="3ayT5n4PbIL23pVHX4Ju-68" style="edgeStyle=orthogonalEdgeStyle;rounded=0;orthogonalLoop=1;jettySize=auto;html=1;exitX=0;exitY=0.5;exitDx=0;exitDy=0;entryX=1;entryY=0.5;entryDx=0;entryDy=0;endArrow=none;endFill=0;" parent="1" target="3ayT5n4PbIL23pVHX4Ju-3" edge="1">
          <mxGeometry relative="1" as="geometry">
            <mxPoint x="179.99999999999977" y="350" as="sourcePoint" />
          </mxGeometry>
        </mxCell>
        <mxCell id="3ayT5n4PbIL23pVHX4Ju-62" style="edgeStyle=orthogonalEdgeStyle;rounded=0;orthogonalLoop=1;jettySize=auto;html=1;exitX=1;exitY=0.5;exitDx=0;exitDy=0;entryX=0;entryY=0.5;entryDx=0;entryDy=0;endArrow=none;endFill=0;" parent="1" source="3ayT5n4PbIL23pVHX4Ju-10" target="3ayT5n4PbIL23pVHX4Ju-39" edge="1">
          <mxGeometry relative="1" as="geometry" />
        </mxCell>
        <mxCell id="3ayT5n4PbIL23pVHX4Ju-64" style="edgeStyle=orthogonalEdgeStyle;rounded=0;orthogonalLoop=1;jettySize=auto;html=1;exitX=1;exitY=0.5;exitDx=0;exitDy=0;entryX=0;entryY=0.5;entryDx=0;entryDy=0;endArrow=none;endFill=0;" parent="1" source="3ayT5n4PbIL23pVHX4Ju-10" target="3ayT5n4PbIL23pVHX4Ju-40" edge="1">
          <mxGeometry relative="1" as="geometry" />
        </mxCell>
        <mxCell id="3ayT5n4PbIL23pVHX4Ju-65" style="edgeStyle=orthogonalEdgeStyle;rounded=0;orthogonalLoop=1;jettySize=auto;html=1;exitX=1;exitY=0.5;exitDx=0;exitDy=0;entryX=0;entryY=0.5;entryDx=0;entryDy=0;endArrow=none;endFill=0;" parent="1" source="3ayT5n4PbIL23pVHX4Ju-10" target="3ayT5n4PbIL23pVHX4Ju-41" edge="1">
          <mxGeometry relative="1" as="geometry" />
        </mxCell>
        <mxCell id="3ayT5n4PbIL23pVHX4Ju-67" style="edgeStyle=orthogonalEdgeStyle;rounded=0;orthogonalLoop=1;jettySize=auto;html=1;endArrow=none;endFill=0;entryX=1;entryY=0.5;entryDx=0;entryDy=0;" parent="1" source="3ayT5n4PbIL23pVHX4Ju-10" edge="1">
          <mxGeometry relative="1" as="geometry">
            <mxPoint x="239.99999999999977" y="350" as="targetPoint" />
          </mxGeometry>
        </mxCell>
        <mxCell id="3ayT5n4PbIL23pVHX4Ju-10" value="userdata" style="rounded=0;whiteSpace=wrap;html=1;" parent="1" vertex="1">
          <mxGeometry x="170" y="335" width="60" height="30" as="geometry" />
        </mxCell>
        <mxCell id="3ayT5n4PbIL23pVHX4Ju-45" style="edgeStyle=orthogonalEdgeStyle;rounded=0;orthogonalLoop=1;jettySize=auto;html=1;exitX=1;exitY=0.5;exitDx=0;exitDy=0;entryX=0;entryY=0.5;entryDx=0;entryDy=0;endArrow=none;endFill=0;" parent="1" source="3ayT5n4PbIL23pVHX4Ju-26" target="3ayT5n4PbIL23pVHX4Ju-28" edge="1">
          <mxGeometry relative="1" as="geometry" />
        </mxCell>
        <mxCell id="3ayT5n4PbIL23pVHX4Ju-46" style="edgeStyle=orthogonalEdgeStyle;rounded=0;orthogonalLoop=1;jettySize=auto;html=1;exitX=1;exitY=0.5;exitDx=0;exitDy=0;entryX=0;entryY=0.5;entryDx=0;entryDy=0;endArrow=none;endFill=0;" parent="1" source="3ayT5n4PbIL23pVHX4Ju-26" target="3ayT5n4PbIL23pVHX4Ju-27" edge="1">
          <mxGeometry relative="1" as="geometry" />
        </mxCell>
        <mxCell id="3ayT5n4PbIL23pVHX4Ju-47" style="edgeStyle=orthogonalEdgeStyle;rounded=0;orthogonalLoop=1;jettySize=auto;html=1;exitX=1;exitY=0.5;exitDx=0;exitDy=0;entryX=0;entryY=0.5;entryDx=0;entryDy=0;endArrow=none;endFill=0;" parent="1" source="3ayT5n4PbIL23pVHX4Ju-26" target="3ayT5n4PbIL23pVHX4Ju-29" edge="1">
          <mxGeometry relative="1" as="geometry" />
        </mxCell>
        <mxCell id="3ayT5n4PbIL23pVHX4Ju-26" value="device" style="rounded=0;whiteSpace=wrap;html=1;" parent="1" vertex="1">
          <mxGeometry x="180" y="110" width="60" height="30" as="geometry" />
        </mxCell>
        <mxCell id="3ayT5n4PbIL23pVHX4Ju-27" value="real_fan_on" style="rounded=0;whiteSpace=wrap;html=1;" parent="1" vertex="1">
          <mxGeometry x="390" y="130" width="90" height="30" as="geometry" />
        </mxCell>
        <mxCell id="3ayT5n4PbIL23pVHX4Ju-28" value="pump" style="rounded=0;whiteSpace=wrap;html=1;" parent="1" vertex="1">
          <mxGeometry x="390" y="90" width="60" height="30" as="geometry" />
        </mxCell>
        <mxCell id="3ayT5n4PbIL23pVHX4Ju-29" value="real_led_on" style="rounded=0;whiteSpace=wrap;html=1;" parent="1" vertex="1">
          <mxGeometry x="390" y="210" width="90" height="30" as="geometry" />
        </mxCell>
        <mxCell id="3ayT5n4PbIL23pVHX4Ju-39" value="temp" style="rounded=0;whiteSpace=wrap;html=1;" parent="1" vertex="1">
          <mxGeometry x="410" y="320" width="60" height="30" as="geometry" />
        </mxCell>
        <mxCell id="3ayT5n4PbIL23pVHX4Ju-40" value="light" style="rounded=0;whiteSpace=wrap;html=1;" parent="1" vertex="1">
          <mxGeometry x="410" y="380" width="60" height="30" as="geometry" />
        </mxCell>
        <mxCell id="3ayT5n4PbIL23pVHX4Ju-41" value="soil_humi" style="rounded=0;whiteSpace=wrap;html=1;" parent="1" vertex="1">
          <mxGeometry x="410" y="430" width="60" height="30" as="geometry" />
        </mxCell>
        <mxCell id="VUY6jiJl7TAsuizDtN5x-2" style="edgeStyle=orthogonalEdgeStyle;rounded=0;orthogonalLoop=1;jettySize=auto;html=1;exitX=0;exitY=0.5;exitDx=0;exitDy=0;entryX=1;entryY=0.5;entryDx=0;entryDy=0;endArrow=none;endFill=0;" parent="1" source="mXDyUq1OCUXzKVCQ8XwS-1" target="3ayT5n4PbIL23pVHX4Ju-3" edge="1">
          <mxGeometry relative="1" as="geometry" />
        </mxCell>
        <mxCell id="mXDyUq1OCUXzKVCQ8XwS-1" value="mode" style="rounded=0;whiteSpace=wrap;html=1;" parent="1" vertex="1">
          <mxGeometry x="180" y="20" width="60" height="30" as="geometry" />
        </mxCell>
        <mxCell id="VUY6jiJl7TAsuizDtN5x-6" value="exception" style="rounded=0;whiteSpace=wrap;html=1;" parent="1" vertex="1">
          <mxGeometry x="180" y="210" width="60" height="30" as="geometry" />
        </mxCell>
        <mxCell id="O_SuyCmDpOLOEG0Is_au-6" style="edgeStyle=orthogonalEdgeStyle;rounded=0;orthogonalLoop=1;jettySize=auto;html=1;entryX=1;entryY=0.5;entryDx=0;entryDy=0;endArrow=none;endFill=0;" parent="1" source="O_SuyCmDpOLOEG0Is_au-1" target="3ayT5n4PbIL23pVHX4Ju-26" edge="1">
          <mxGeometry relative="1" as="geometry" />
        </mxCell>
        <mxCell id="O_SuyCmDpOLOEG0Is_au-1" value="real_pump_on" style="rounded=0;whiteSpace=wrap;html=1;" parent="1" vertex="1">
          <mxGeometry x="390" y="50" width="90" height="30" as="geometry" />
        </mxCell>
        <mxCell id="O_SuyCmDpOLOEG0Is_au-5" style="edgeStyle=orthogonalEdgeStyle;rounded=0;orthogonalLoop=1;jettySize=auto;html=1;entryX=1;entryY=0.5;entryDx=0;entryDy=0;endArrow=none;endFill=0;" parent="1" source="O_SuyCmDpOLOEG0Is_au-2" target="3ayT5n4PbIL23pVHX4Ju-26" edge="1">
          <mxGeometry relative="1" as="geometry" />
        </mxCell>
        <mxCell id="O_SuyCmDpOLOEG0Is_au-2" value="fan" style="rounded=0;whiteSpace=wrap;html=1;" parent="1" vertex="1">
          <mxGeometry x="390" y="170" width="60" height="30" as="geometry" />
        </mxCell>
        <mxCell id="O_SuyCmDpOLOEG0Is_au-4" style="edgeStyle=orthogonalEdgeStyle;rounded=0;orthogonalLoop=1;jettySize=auto;html=1;entryX=1;entryY=0.5;entryDx=0;entryDy=0;endArrow=none;endFill=0;" parent="1" source="O_SuyCmDpOLOEG0Is_au-3" target="3ayT5n4PbIL23pVHX4Ju-26" edge="1">
          <mxGeometry relative="1" as="geometry" />
        </mxCell>
        <mxCell id="O_SuyCmDpOLOEG0Is_au-3" value="led" style="rounded=0;whiteSpace=wrap;html=1;" parent="1" vertex="1">
          <mxGeometry x="390" y="250" width="60" height="30" as="geometry" />
        </mxCell>
        <mxCell id="bR8xgodtiUnK5eINgVe9-1" style="edgeStyle=orthogonalEdgeStyle;rounded=0;orthogonalLoop=1;jettySize=auto;html=1;exitX=1;exitY=0.5;exitDx=0;exitDy=0;entryX=0;entryY=0.5;entryDx=0;entryDy=0;endArrow=none;endFill=0;" parent="1" source="bR8xgodtiUnK5eINgVe9-10" target="bR8xgodtiUnK5eINgVe9-7" edge="1">
          <mxGeometry relative="1" as="geometry" />
        </mxCell>
        <mxCell id="bR8xgodtiUnK5eINgVe9-2" style="edgeStyle=orthogonalEdgeStyle;rounded=0;orthogonalLoop=1;jettySize=auto;html=1;exitX=1;exitY=0.5;exitDx=0;exitDy=0;entryX=0;entryY=0.5;entryDx=0;entryDy=0;endArrow=none;endFill=0;" parent="1" source="bR8xgodtiUnK5eINgVe9-10" target="bR8xgodtiUnK5eINgVe9-6" edge="1">
          <mxGeometry relative="1" as="geometry">
            <Array as="points">
              <mxPoint x="340" y="485" />
              <mxPoint x="340" y="535" />
            </Array>
          </mxGeometry>
        </mxCell>
        <mxCell id="bR8xgodtiUnK5eINgVe9-3" style="edgeStyle=orthogonalEdgeStyle;rounded=0;orthogonalLoop=1;jettySize=auto;html=1;exitX=1;exitY=0.5;exitDx=0;exitDy=0;entryX=0;entryY=0.5;entryDx=0;entryDy=0;endArrow=none;endFill=0;" parent="1" source="bR8xgodtiUnK5eINgVe9-10" target="bR8xgodtiUnK5eINgVe9-8" edge="1">
          <mxGeometry relative="1" as="geometry">
            <Array as="points">
              <mxPoint x="340" y="485" />
              <mxPoint x="340" y="585" />
            </Array>
          </mxGeometry>
        </mxCell>
        <mxCell id="bR8xgodtiUnK5eINgVe9-4" style="edgeStyle=orthogonalEdgeStyle;rounded=0;orthogonalLoop=1;jettySize=auto;html=1;exitX=1;exitY=0.5;exitDx=0;exitDy=0;entryX=0;entryY=0.5;entryDx=0;entryDy=0;endArrow=none;endFill=0;startArrow=none;" parent="1" source="bR8xgodtiUnK5eINgVe9-10" target="bR8xgodtiUnK5eINgVe9-9" edge="1">
          <mxGeometry relative="1" as="geometry">
            <Array as="points">
              <mxPoint x="340" y="485" />
              <mxPoint x="340" y="635" />
            </Array>
          </mxGeometry>
        </mxCell>
        <mxCell id="bR8xgodtiUnK5eINgVe9-5" value="sensor" style="rounded=0;whiteSpace=wrap;html=1;" parent="1" vertex="1">
          <mxGeometry x="180" y="470" width="60" height="30" as="geometry" />
        </mxCell>
        <mxCell id="bR8xgodtiUnK5eINgVe9-6" value="temp" style="rounded=0;whiteSpace=wrap;html=1;" parent="1" vertex="1">
          <mxGeometry x="410" y="520" width="60" height="30" as="geometry" />
        </mxCell>
        <mxCell id="bR8xgodtiUnK5eINgVe9-7" value="humi" style="rounded=0;whiteSpace=wrap;html=1;" parent="1" vertex="1">
          <mxGeometry x="410" y="470" width="60" height="30" as="geometry" />
        </mxCell>
        <mxCell id="bR8xgodtiUnK5eINgVe9-8" value="light" style="rounded=0;whiteSpace=wrap;html=1;" parent="1" vertex="1">
          <mxGeometry x="410" y="570" width="60" height="30" as="geometry" />
        </mxCell>
        <mxCell id="bR8xgodtiUnK5eINgVe9-9" value="soil_humi" style="rounded=0;whiteSpace=wrap;html=1;" parent="1" vertex="1">
          <mxGeometry x="410" y="620" width="60" height="30" as="geometry" />
        </mxCell>
        <mxCell id="bR8xgodtiUnK5eINgVe9-10" value="그날 날짜" style="rounded=0;whiteSpace=wrap;html=1;" parent="1" vertex="1">
          <mxGeometry x="270" y="470" width="60" height="30" as="geometry" />
        </mxCell>
        <mxCell id="bR8xgodtiUnK5eINgVe9-11" value="" style="edgeStyle=orthogonalEdgeStyle;rounded=0;orthogonalLoop=1;jettySize=auto;html=1;exitX=1;exitY=0.5;exitDx=0;exitDy=0;entryX=0;entryY=0.5;entryDx=0;entryDy=0;endArrow=none;endFill=0;" parent="1" source="bR8xgodtiUnK5eINgVe9-5" target="bR8xgodtiUnK5eINgVe9-10" edge="1">
          <mxGeometry relative="1" as="geometry">
            <mxPoint x="240" y="485" as="sourcePoint" />
            <mxPoint x="450" y="635" as="targetPoint" />
          </mxGeometry>
        </mxCell>
      </root>
    </mxGraphModel>
  </diagram>
</mxfile>
